<svg width="65" height="17" viewBox="0 0 65 17" fill="none" xmlns="http://www.w3.org/2000/svg">
<path d="M7.44 9.84V12.9C6.96 13.1 6.36 13.2 5.5 13.2C3.02 13.2 1.74 11.9 1.74 9.34V6.28H0.28V3.56H1.84L2.22 0.88H4.94V3.56H7.42V6.28H4.94V9.22C4.94 9.96 5.34 10.36 6.04 10.36C6.5 10.36 6.9 10.26 7.32 9.84H7.44ZM18.2669 8.94H11.8469C12.1269 10.02 13.1069 10.5 14.4469 10.5C15.7669 10.5 16.9069 10.14 17.6069 9.46H17.7269V12.44C16.9869 12.92 15.7269 13.2 14.2669 13.2C10.9269 13.2 8.60688 11.16 8.60688 8.28C8.60688 5.4 10.6469 3.36 13.5269 3.36C16.4469 3.36 18.2669 5.1 18.2669 7.88V8.94ZM13.6269 6.06C12.8269 6.06 12.0669 6.5 11.8469 7.38H15.4069C15.2069 6.48 14.5269 6.06 13.6269 6.06ZM25.4081 3.36C28.0281 3.36 29.9481 5.44 29.9481 8.28C29.9481 11.12 28.0281 13.2 25.4081 13.2C24.4681 13.2 23.7081 12.92 23.1481 12.4H23.1081V16.8H19.9081V3.56H22.5481L22.6681 4.7H22.7081C23.2481 3.84 24.1681 3.36 25.4081 3.36ZM24.8681 10.36C25.9681 10.36 26.7081 9.52 26.7081 8.28C26.7081 7.04 25.9681 6.2 24.8681 6.2C23.7681 6.2 23.0281 7.04 23.0281 8.28C23.0281 9.52 23.7681 10.36 24.8681 10.36ZM41.1078 13H38.4678L38.3478 11.86H38.3078C37.7678 12.72 36.8478 13.2 35.6078 13.2C32.9878 13.2 31.0678 11.12 31.0678 8.28C31.0678 5.44 32.9878 3.36 35.6078 3.36C36.8478 3.36 37.7678 3.84 38.3078 4.7H38.3478L38.4678 3.56H41.1078V13ZM36.1478 10.36C37.2478 10.36 37.9878 9.52 37.9878 8.28C37.9878 7.04 37.2478 6.2 36.1478 6.2C35.0478 6.2 34.3078 7.04 34.3078 8.28C34.3078 9.52 35.0478 10.36 36.1478 10.36Z" fill="white"/>
<path d="M52.7875 3.56V12.24C52.7875 15.16 50.7275 17 47.4275 17C45.8875 17 44.5675 16.66 43.7075 16.12V12.92H43.8275C44.4875 13.66 45.7275 14.16 47.0275 14.16C48.6075 14.16 49.5075 13.46 49.5875 12.2H49.5475C48.9875 12.72 48.2275 13 47.2875 13C44.6675 13 42.7475 11.02 42.7475 8.18C42.7475 5.34 44.6675 3.36 47.2875 3.36C48.5275 3.36 49.4475 3.84 49.9875 4.7H50.0275L50.1475 3.56H52.7875ZM47.8275 10.16C48.9275 10.16 49.6675 9.42 49.6675 8.18C49.6675 6.94 48.9275 6.2 47.8275 6.2C46.7275 6.2 45.9875 6.94 45.9875 8.18C45.9875 9.42 46.7275 10.16 47.8275 10.16ZM59.5072 3.36C62.4872 3.36 64.5872 5.4 64.5872 8.28C64.5872 11.16 62.4872 13.2 59.5072 13.2C56.5272 13.2 54.4272 11.16 54.4272 8.28C54.4272 5.4 56.5272 3.36 59.5072 3.36ZM59.5072 6.2C58.4072 6.2 57.6672 7.04 57.6672 8.28C57.6672 9.52 58.4072 10.36 59.5072 10.36C60.6072 10.36 61.3472 9.52 61.3472 8.28C61.3472 7.04 60.6072 6.2 59.5072 6.2Z" fill="#03FF94"/>
</svg>
